<svg width="44" height="44" viewBox="0 0 44 44" fill="none" xmlns="http://www.w3.org/2000/svg">
<circle cx="22" cy="22" r="22" fill="#292929"/>
<path fill-rule="evenodd" clip-rule="evenodd" d="M32.2865 13.1295C33.4219 13.4345 34.3199 14.3326 34.6249 15.4679C35.1841 17.5352 35.2011 21.8223 35.2011 21.8223C35.2011 21.8223 35.2011 26.1263 34.6419 28.1767C34.3369 29.312 33.4388 30.2101 32.3035 30.5151C30.2531 31.0742 22.0009 31.0742 22.0009 31.0742C22.0009 31.0742 13.7487 31.0742 11.6984 30.5151C10.5631 30.2101 9.66498 29.312 9.35997 28.1767C8.80078 26.1094 8.80078 21.8223 8.80078 21.8223C8.80078 21.8223 8.80078 17.5352 9.34302 15.4849C9.64803 14.3495 10.5461 13.4515 11.6814 13.1464C13.7318 12.5873 21.984 12.5703 21.984 12.5703C21.984 12.5703 30.2362 12.5703 32.2865 13.1295ZM26.2052 21.8221L19.3594 25.7872V17.8569L26.2052 21.8221Z" fill="white"/>
</svg>
