<svg width="19" height="14" viewBox="0 0 19 14" fill="none" xmlns="http://www.w3.org/2000/svg">
<rect opacity="0.3" x="0.271423" y="0.373291" width="18.4907" height="12.6891" fill="#39BFFF"/>
<path d="M18.6037 0H0.395939C0.158444 0 0 0.1978 0 0.3956V13.0619C0 13.2994 0.158444 13.4579 0.395939 13.4579H18.6041C18.8416 13.4579 19 13.2994 19 13.0619V0.3956C19 0.1978 18.8416 0 18.6041 0H18.6037ZM0.791539 1.34558L6.17489 6.72893L0.791539 12.1123V1.34558ZM9.49983 8.94545L1.34592 0.791539H17.6541L9.49983 8.94545V8.94545ZM6.72893 7.28298L9.22264 9.77668C9.30169 9.85573 9.42044 9.89543 9.49983 9.89543C9.61858 9.89543 9.69763 9.85573 9.77702 9.77668L12.2707 7.28298L17.6537 12.6663H1.34592L6.72893 7.28298V7.28298ZM12.8248 6.72893L18.2081 1.34558V12.1119L12.8248 6.72893V6.72893Z" fill="#39BFFF"/>
</svg>
