<svg width="12" height="16" viewBox="0 0 12 16" fill="none" xmlns="http://www.w3.org/2000/svg">
<path fill-rule="evenodd" clip-rule="evenodd" d="M3.1541 9.49838C1.51247 6.65498 0.42251 2.28069 1.39605 1.69748C1.95719 1.36132 2.88401 1.00196 3.56853 0.757831C4.06021 0.582474 4.59435 0.834791 4.7895 1.31896L5.70741 3.59635C5.84945 3.94875 5.77951 4.3512 5.5269 4.63502L4.47857 5.81288C4.47857 5.81288 4.75081 7.037 5.43115 8.21539C6.11149 9.39377 6.95781 10.1071 6.95781 10.1071L8.48966 9.65271C8.88644 9.53502 9.31472 9.67391 9.56692 10.0021L11.1901 12.1142C11.5059 12.5251 11.4556 13.1087 11.0636 13.4477C10.4588 13.9708 9.59226 14.6849 9.05827 14.9688C8.1717 15.4403 4.79574 12.3418 3.1541 9.49838Z" fill="#39BFFF" fill-opacity="0.5" stroke="#39BFFF" stroke-linejoin="round"/>
</svg>
