<svg width="206" height="31" viewBox="0 0 206 31" fill="none" xmlns="http://www.w3.org/2000/svg">
<path d="M3.79008 9.6997V4.57666H9.91999V9.6997H15.043V14.9429H9.91999V22.8091C9.91999 24.9458 11.0499 25.3491 11.9766 25.3491C12.6632 25.3491 13.7101 25.2691 15.043 24.9859V29.9859C13.1866 30.6324 11.4131 30.6724 10.1231 30.6724C6.77637 30.6724 3.79008 29.2193 3.79008 23.6129V14.94H0V9.69684H3.79008V9.6997Z" fill="black"/>
<path d="M17.9721 9.69953H24.062V11.7962H24.1421C25.1518 10.4661 27.0454 9.2962 30.272 9.2962C30.4751 9.2962 30.7954 9.33625 31.0386 9.33625L30.7153 14.8226C29.8286 14.5394 28.7388 14.4593 27.9321 14.4593C25.5122 14.4593 24.0591 15.7093 24.0591 19.2591V30.2689H17.9692V9.69953H17.9721Z" fill="black"/>
<path d="M38.8876 23.7129H32.7577V30.2719H38.8876V23.7129Z" fill="url(#paint0_linear_203_1287)"/>
<path d="M38.8876 14.9313H32.7577V21.4903H38.8876V14.9313Z" fill="url(#paint1_linear_203_1287)"/>
<path d="M47.0341 1.75055L40.8641 30.578H46.954L53.1268 1.75055H47.0341Z" fill="url(#paint2_linear_203_1287)"/>
<path d="M56.7539 1.77051L50.5811 30.598H56.6709L62.8437 1.77051H56.7539Z" fill="url(#paint3_linear_203_1287)"/>
<path d="M68.7706 7.0996C66.8341 7.0996 65.2609 5.52636 65.2609 3.5498C65.2609 1.57324 66.8341 0 68.7706 0C70.7071 0 72.3204 1.61329 72.3204 3.5498C72.3204 5.48632 70.7472 7.0996 68.7706 7.0996ZM65.7042 9.72262H71.8341V30.292H65.7042V9.71976V9.72262Z" fill="black"/>
<path d="M73.7964 20.006C73.7964 13.7931 78.5161 9.31653 84.8091 9.31653C91.102 9.31653 95.7388 13.7931 95.7388 20.006C95.7388 26.2188 91.0191 30.6954 84.729 30.6954C78.4389 30.6954 73.7992 26.2188 73.7992 20.006H73.7964ZM89.606 20.006C89.606 17.1427 87.6695 14.5998 84.7261 14.5998C81.7827 14.5998 79.8863 17.0597 79.8863 20.006C79.8863 22.9522 81.8628 25.3693 84.8062 25.3693C87.7496 25.3693 89.606 22.9494 89.606 20.006Z" fill="black"/>
<path d="M103.682 9.71985V11.8165H103.762C105.132 10.2033 107.029 9.31653 109.409 9.31653C113.282 9.31653 116.548 12.0997 116.548 17.2228V30.2921H110.459V18.6759C110.459 15.9728 108.845 14.6026 107.072 14.6026C105.135 14.6026 103.685 16.0157 103.685 18.756V30.2921H97.5952V9.71985H103.685H103.682Z" fill="black"/>
<path d="M137.896 26.9426C135.919 29.1194 133.499 30.6926 129.426 30.6926C123.336 30.6926 118.86 26.3362 118.86 20.0032C118.86 13.6702 123.296 9.31372 129.509 9.31372C133.342 9.31372 135.802 10.6839 137.696 12.8235L133.743 16.5735C132.533 15.2835 131.283 14.5969 129.629 14.5969C126.886 14.5969 124.95 16.6936 124.95 20.0032C124.95 23.3127 126.966 25.3665 129.749 25.3665C131.563 25.3665 132.693 24.68 133.986 23.3098L137.899 26.9397L137.896 26.9426Z" fill="black"/>
<path d="M137.896 20.006C137.896 13.7931 142.616 9.31653 148.909 9.31653C155.202 9.31653 159.838 13.7931 159.838 20.006C159.838 26.2188 155.119 30.6954 148.826 30.6954C142.533 30.6954 137.896 26.2188 137.896 20.006ZM153.705 20.006C153.705 17.1427 151.769 14.5998 148.826 14.5998C145.882 14.5998 143.986 17.0597 143.986 20.006C143.986 22.9522 145.962 25.3693 148.906 25.3693C151.849 25.3693 153.705 22.9494 153.705 20.006Z" fill="black"/>
<path d="M170.848 9.31643C173.551 9.31643 175.445 10.2032 176.778 11.7764H176.858V0.0400391H182.988V30.292H176.858V28.1553H176.778C175.528 29.6885 173.711 30.6953 171.011 30.6953C166.211 30.6953 161.655 27.2657 161.655 20.0059C161.655 12.7461 166.131 9.31643 170.851 9.31643H170.848ZM172.541 25.3692C175.525 25.3692 177.221 22.7061 177.221 20.0059C177.221 17.3056 175.608 14.5997 172.541 14.5997C170.082 14.5997 167.742 16.6163 167.742 20.0059C167.742 23.3955 169.878 25.3692 172.541 25.3692Z" fill="black"/>
<path d="M186.366 25.3693C183.108 20.272 184.078 14.1479 189.072 10.9556C194.781 7.30569 200.265 10.1204 203.394 15.0146C203.655 15.4236 203.895 15.7955 204.229 16.3962L192.811 23.6931C194.35 25.7269 196.257 25.9414 198.4 24.5741C199.996 23.553 200.954 22.1285 201.215 20.1433L206 20.9643C205.685 23.9906 204.018 26.7767 200.926 28.7532C195.794 32.0342 189.907 30.9129 186.366 25.3722V25.3693ZM196.967 16.4906C195.408 14.4253 193.531 13.6616 191.526 14.9431C189.521 16.2245 189.472 18.1696 190.68 20.5095L196.967 16.4906V16.4906Z" fill="black"/>
<defs>
<linearGradient id="paint0_linear_203_1287" x1="61.5537" y1="2.75162" x2="33.6902" y2="29.0018" gradientUnits="userSpaceOnUse">
<stop stop-color="#0305FF"/>
<stop offset="1" stop-color="#39BFFF"/>
</linearGradient>
<linearGradient id="paint1_linear_203_1287" x1="57.1715" y1="-1.89947" x2="29.308" y2="24.3479" gradientUnits="userSpaceOnUse">
<stop stop-color="#0305FF"/>
<stop offset="1" stop-color="#39BFFF"/>
</linearGradient>
<linearGradient id="paint2_linear_203_1287" x1="61.4021" y1="2.59152" x2="33.5386" y2="28.8417" gradientUnits="userSpaceOnUse">
<stop stop-color="#0305FF"/>
<stop offset="1" stop-color="#39BFFF"/>
</linearGradient>
<linearGradient id="paint3_linear_203_1287" x1="65.9816" y1="7.45133" x2="38.1181" y2="33.7016" gradientUnits="userSpaceOnUse">
<stop stop-color="#0305FF"/>
<stop offset="1" stop-color="#39BFFF"/>
</linearGradient>
</defs>
</svg>
