<svg width="44" height="44" viewBox="0 0 44 44" fill="none" xmlns="http://www.w3.org/2000/svg">
<g opacity="0.9">
<circle cx="22" cy="22" r="22" fill="#292929"/>
<path d="M10.058 29.9359C12.2363 31.3174 14.8202 32.1169 17.5901 32.1169C25.3716 32.1169 31.6796 25.8082 31.6796 18.0273C31.6796 17.8331 31.6755 17.6402 31.6681 17.448C31.9495 17.2265 33.6903 15.8312 34.117 14.9343C34.117 14.9343 32.7033 15.5218 31.3198 15.6602C31.3171 15.6602 31.3137 15.6608 31.311 15.6608C31.311 15.6608 31.3137 15.6595 31.3184 15.6561C31.4459 15.5709 33.2282 14.3577 33.4695 12.9121C33.4695 12.9121 32.4696 13.4458 31.0697 13.9127C30.8379 13.9897 30.5953 14.0653 30.3451 14.1355C29.4427 13.1724 28.16 12.5713 26.7362 12.5713C24.0051 12.5713 21.7921 14.7837 21.7921 17.5127C21.7921 17.8978 21.8364 18.2726 21.9202 18.6325C21.5386 18.6168 15.7267 18.291 11.7729 13.5029C11.7729 13.5029 9.40991 16.7288 13.1811 20.046C13.1811 20.046 12.0347 20.0004 11.0457 19.4094C11.0457 19.4094 10.6824 23.3176 14.9532 24.3168C14.9532 24.3168 14.1128 24.6351 12.7721 24.4081C12.7721 24.4081 13.5219 27.5659 17.3162 27.861C17.3162 27.861 14.3158 30.5715 10.0566 29.9355L10.058 29.9359Z" fill="white"/>
</g>
</svg>
